<?xml version="1.0" encoding="UTF-8"?>
<svg id="reel" xmlns="http://www.w3.org/2000/svg" viewBox="0 0 63 63">
  <defs>
    <style>
      .cls-1 {
        fill: none;
        stroke: #000;
        stroke-miterlimit: 10;
      }
    </style>
  </defs>
  <path class="cls-1" d="m62.5,59.3V3.6c0-1.7-1.4-3.1-3.1-3.1H10C4.7.5.5,4.7.5,10v43c0,5.3,4.3,9.6,9.6,9.6h49.3c1.7,0,3.2-1.4,3.2-3.2Z"/>
  <path class="cls-1" d="m10.5,6.7h45.1v37.2H7.4V9.8c0-1.7,1.4-3.1,3.1-3.1Z"/>
  <path class="cls-1" d="m55.6,50.5v7.5H10.5c-1.7,0-3.1-1.7-3.1-3.7h0c0-2.1,1.4-3.8,3.1-3.8h45.1Z"/>
  <path class="cls-1" d="m41.8,37.7h-20.7c0-.6.2-4.3,3.4-7,2.9-2.5,6.3-2.4,7-2.3.5,0,5.6-.1,8.5,3.9,1.6,2.1,1.8,4.4,1.8,5.4Z"/>
  <circle class="cls-1" cx="31.5" cy="19.1" r="6.2"/>
</svg>