<?xml version="1.0" encoding="UTF-8"?>
<svg id="reel" xmlns="http://www.w3.org/2000/svg" viewBox="0 0 54.9 52.7">
  <defs>
    <style>
      .cls-1 {
        fill: none;
        stroke: #000;
        stroke-miterlimit: 10;
        stroke-width: .5px;
      }
    </style>
  </defs>
  <path class="cls-1" d="m27.2.3l-10.2,6.4h-8.7v5.4l-5.7,3.3c-1.5.9-2.4,2.4-2.4,4.1v28.1c0,2.6,2.1,4.8,4.8,4.8h44.3c2.7,0,4.8-2.1,4.9-4.8l.4-27c0-2.4-1.2-4.5-3.3-5.7l-5.3-3v-5.4h-8.7L27.2.3Z"/>
  <polygon class="cls-1" points="13.7 12 40.6 12 40.6 25.2 27.2 33.6 13.7 25.2 13.7 12"/>
  <rect class="cls-1" x="16.4" y="15.5" width="21.5" height="2.5"/>
  <rect class="cls-1" x="16.4" y="20.2" width="21.5" height="2.5"/>
  <polygon class="cls-1" points="8.3 21.8 8.3 18.4 5.6 20.1 8.3 21.8"/>
  <polygon class="cls-1" points="48.7 20.1 46 18.4 46 21.8 48.7 20.1"/>
</svg>