<?xml version="1.0" encoding="UTF-8"?>
<svg id="Layer_1" data-name="Layer 1" xmlns="http://www.w3.org/2000/svg" viewBox="0 0 62.1 61.9">
  <defs>
    <style>
      .cls-1 {
        fill: none;
        stroke: #000;
        stroke-miterlimit: 10;
      }
    </style>
  </defs>
  <path class="cls-1" d="m30,59.2v-20.6c0-1.2-1-2.1-2.1-2.1h-10.1c-1.2,0-2.1,1-2.1,2.1v20.6c0,1.2-1,2.1-2.1,2.1H2.6c-1.2,0-2.1-1-2.1-2.1v-28.5c0-.6.2-1.1.6-1.5L29.2,1.1c.8-.8,2.2-.8,3,0l28.7,28.7c.4.4.6.9.6,1.5v27.9c0,1.2-1,2.1-2.1,2.1h-27.3c-1.2,0-2.1-1-2.1-2.1Z"/>
  <rect class="cls-1" x="38.1" y="36.4" width="16.2" height="17.6" rx="2.1" ry="2.1"/>
</svg>