<?xml version="1.0" encoding="UTF-8"?>
<svg id="Layer_1" data-name="Layer 1" xmlns="http://www.w3.org/2000/svg" viewBox="0 0 63.4 62.8">
  <defs>
    <style>
      .cls-1 {
        fill: none;
        stroke: #000;
        stroke-miterlimit: 10;
      }
    </style>
  </defs>
  <path class="cls-1" d="m.5,59.2v-27.8c0-.8.3-1.6.9-2.2L29.1,1.4c1.2-1.2,3.2-1.2,4.5,0l28.4,28.4c.6.6.9,1.4.9,2.2v27.1c0,1.7-1.4,3.1-3.1,3.1h-30.6c-1.7,0-3.1-1.4-3.1-3.1v-19.1c0-1.7-1.4-3.1-3.1-3.1h-8.7c-1.7,0-3.1,1.4-3.1,3.1v19.1c0,1.7-1.4,3.1-3.1,3.1H3.6c-1.7,0-3.1-1.4-3.1-3.1Z"/>
  <rect class="cls-1" x="36.9" y="36.8" width="16.6" height="18" rx="3.1" ry="3.1"/>
</svg>