<?xml version="1.0" encoding="UTF-8"?>
<svg id="reel" xmlns="http://www.w3.org/2000/svg" viewBox="0 0 61.5 49.4">
  <defs>
    <style>
      .cls-1 {
        fill: none;
        stroke: #000;
        stroke-miterlimit: 10;
      }
    </style>
  </defs>
  <path class="cls-1" d="m6.5,12.6h42.3v9.1c-11.8.1-23.5.2-35.3.3-1.5,0-2.9.9-3.6,2.3l-3.4,6.9V12.6Z"/>
  <path class="cls-1" d="m6.2.5h14.8l7.7,6h20.5c3,0,5.5,2.5,5.5,5.5v9.6l4,.2c1.6,0,2.7,1.8,2.1,3.3l-7.9,20c-.9,2.2-3.1,3.7-5.5,3.7H3.4c-1.6,0-2.9-1.3-2.9-2.9V6.2C.5,3.1,3.1.5,6.2.5Z"/>
</svg>